<svg width="65" height="61" viewBox="0 0 65 61" fill="none" xmlns="http://www.w3.org/2000/svg">
<path opacity="0.5" d="M64.0991 0.410504L48.4201 55.9541C48.3404 56.2062 48.0215 56.2819 47.8354 56.1054L37.3385 46.1464L45.2045 18.3115C45.2843 18.0594 45.0451 17.8325 44.7794 17.9081L15.441 25.3711L4.99718 15.4625C4.81116 15.286 4.89088 14.9834 5.15663 14.9078L63.6739 0.00710022C63.9396 -0.0433252 64.1788 0.183589 64.0991 0.410504Z" fill="#00B37E"/>
<path opacity="0.5" d="M37.3379 46.1459L33.2986 60.5171C33.2189 60.7693 32.9 60.8449 32.7139 60.6684L0.133486 29.7828C-0.0525363 29.6063 0.0271871 29.3038 0.292933 29.2282L15.4405 25.3706L37.3379 46.1459Z" fill="#00B37E"/>
<path d="M45.2032 18.311L37.3371 46.1459L15.4397 25.3706L44.778 17.9076C45.0438 17.832 45.2829 18.0589 45.2032 18.311Z" fill="#00B37E"/>
</svg>
